<mxfile host="app.diagrams.net" modified="2024-04-20T16:30:47.026Z" agent="Mozilla/5.0 (Windows NT 10.0; Win64; x64) AppleWebKit/537.36 (KHTML, like Gecko) Chrome/123.0.0.0 Safari/537.36" etag="54WX2MP_H9hTbUtHli8R" version="24.2.7" type="google">
  <diagram name="Page-1" id="CiUXe-A1IxkD_p0CpzkX">
    <mxGraphModel grid="1" page="1" gridSize="10" guides="1" tooltips="1" connect="1" arrows="0" fold="1" pageScale="1" pageWidth="827" pageHeight="1169" math="0" shadow="0">
      <root>
        <mxCell id="0" />
        <mxCell id="1" parent="0" />
        <mxCell id="YPzo71LSkBcqXNhe5thy-1" value="&lt;b&gt;&lt;font style=&quot;font-size: 16px;&quot;&gt;User&lt;/font&gt;&lt;/b&gt;" style="shape=umlActor;verticalLabelPosition=bottom;verticalAlign=top;html=1;outlineConnect=0;" vertex="1" parent="1">
          <mxGeometry x="180" y="370" width="30" height="60" as="geometry" />
        </mxCell>
        <mxCell id="YPzo71LSkBcqXNhe5thy-2" value="&lt;b&gt;&lt;font style=&quot;font-size: 15px;&quot;&gt;Rescuing Team&amp;nbsp;&lt;/font&gt;&lt;/b&gt;" style="shape=umlActor;verticalLabelPosition=bottom;verticalAlign=top;html=1;outlineConnect=0;" vertex="1" parent="1">
          <mxGeometry x="665" y="319" width="30" height="60" as="geometry" />
        </mxCell>
        <mxCell id="YPzo71LSkBcqXNhe5thy-3" value="" style="rounded=0;whiteSpace=wrap;html=1;" vertex="1" parent="1">
          <mxGeometry x="330" y="160" width="230" height="520" as="geometry" />
        </mxCell>
        <mxCell id="YPzo71LSkBcqXNhe5thy-8" value="&lt;span style=&quot;font-size: 14px;&quot;&gt;&lt;b&gt;Car Speed And Damage&lt;/b&gt;&lt;/span&gt;" style="ellipse;whiteSpace=wrap;html=1;" vertex="1" parent="1">
          <mxGeometry x="373" y="180" width="130" height="80" as="geometry" />
        </mxCell>
        <mxCell id="YPzo71LSkBcqXNhe5thy-9" value="&lt;b style=&quot;border-color: var(--border-color);&quot;&gt;&lt;font style=&quot;border-color: var(--border-color); font-size: 14px;&quot;&gt;Make a Call and Text Message&lt;/font&gt;&lt;/b&gt;" style="ellipse;whiteSpace=wrap;html=1;" vertex="1" parent="1">
          <mxGeometry x="373" y="280" width="130" height="80" as="geometry" />
        </mxCell>
        <mxCell id="YPzo71LSkBcqXNhe5thy-10" value="&lt;b style=&quot;border-color: var(--border-color);&quot;&gt;&lt;font style=&quot;border-color: var(--border-color); font-size: 14px;&quot;&gt;Send GPS Location of victim&lt;/font&gt;&lt;/b&gt;" style="ellipse;whiteSpace=wrap;html=1;" vertex="1" parent="1">
          <mxGeometry x="373" y="379" width="130" height="80" as="geometry" />
        </mxCell>
        <mxCell id="YPzo71LSkBcqXNhe5thy-11" value="&lt;b style=&quot;border-color: var(--border-color);&quot;&gt;&lt;font style=&quot;border-color: var(--border-color); font-size: 14px;&quot;&gt;Alert to Nearest Hospital&lt;/font&gt;&lt;/b&gt;" style="ellipse;whiteSpace=wrap;html=1;" vertex="1" parent="1">
          <mxGeometry x="373" y="473" width="130" height="80" as="geometry" />
        </mxCell>
        <mxCell id="YPzo71LSkBcqXNhe5thy-13" value="&lt;b&gt;&lt;font style=&quot;font-size: 14px;&quot;&gt;Reescuing&lt;/font&gt;&lt;/b&gt;" style="ellipse;whiteSpace=wrap;html=1;" vertex="1" parent="1">
          <mxGeometry x="375" y="570" width="130" height="80" as="geometry" />
        </mxCell>
        <mxCell id="YPzo71LSkBcqXNhe5thy-15" value="&lt;span&gt;&lt;font style=&quot;font-size: 15px;&quot;&gt;System&lt;/font&gt;&lt;/span&gt;" style="shape=umlActor;verticalLabelPosition=bottom;verticalAlign=top;html=1;outlineConnect=0;fontStyle=1" vertex="1" parent="1">
          <mxGeometry x="666" y="493" width="30" height="60" as="geometry" />
        </mxCell>
        <mxCell id="YPzo71LSkBcqXNhe5thy-17" value="" style="endArrow=none;html=1;rounded=0;entryX=-0.023;entryY=0.625;entryDx=0;entryDy=0;entryPerimeter=0;" edge="1" parent="1" target="YPzo71LSkBcqXNhe5thy-8">
          <mxGeometry width="50" height="50" relative="1" as="geometry">
            <mxPoint x="230" y="390" as="sourcePoint" />
            <mxPoint x="280" y="340" as="targetPoint" />
          </mxGeometry>
        </mxCell>
        <mxCell id="YPzo71LSkBcqXNhe5thy-18" value="" style="endArrow=none;html=1;rounded=0;entryX=-0.023;entryY=0.625;entryDx=0;entryDy=0;entryPerimeter=0;exitX=0;exitY=0.5;exitDx=0;exitDy=0;" edge="1" parent="1" source="YPzo71LSkBcqXNhe5thy-13">
          <mxGeometry width="50" height="50" relative="1" as="geometry">
            <mxPoint x="90" y="590" as="sourcePoint" />
            <mxPoint x="230" y="430" as="targetPoint" />
          </mxGeometry>
        </mxCell>
        <mxCell id="YPzo71LSkBcqXNhe5thy-19" value="" style="endArrow=none;html=1;rounded=0;entryX=-0.023;entryY=0.625;entryDx=0;entryDy=0;entryPerimeter=0;" edge="1" parent="1">
          <mxGeometry width="50" height="50" relative="1" as="geometry">
            <mxPoint x="650" y="340" as="sourcePoint" />
            <mxPoint x="503" y="219" as="targetPoint" />
          </mxGeometry>
        </mxCell>
        <mxCell id="YPzo71LSkBcqXNhe5thy-20" value="" style="endArrow=none;html=1;rounded=0;entryX=1;entryY=0.5;entryDx=0;entryDy=0;" edge="1" parent="1" target="YPzo71LSkBcqXNhe5thy-13">
          <mxGeometry width="50" height="50" relative="1" as="geometry">
            <mxPoint x="660" y="410" as="sourcePoint" />
            <mxPoint x="490" y="260" as="targetPoint" />
          </mxGeometry>
        </mxCell>
        <mxCell id="YPzo71LSkBcqXNhe5thy-22" value="" style="endArrow=none;html=1;rounded=0;entryX=1;entryY=0.5;entryDx=0;entryDy=0;" edge="1" parent="1" target="YPzo71LSkBcqXNhe5thy-11">
          <mxGeometry width="50" height="50" relative="1" as="geometry">
            <mxPoint x="650" y="540" as="sourcePoint" />
            <mxPoint x="513" y="683" as="targetPoint" />
          </mxGeometry>
        </mxCell>
        <mxCell id="YPzo71LSkBcqXNhe5thy-23" value="" style="endArrow=none;html=1;rounded=0;entryX=1;entryY=0.5;entryDx=0;entryDy=0;" edge="1" parent="1">
          <mxGeometry width="50" height="50" relative="1" as="geometry">
            <mxPoint x="650" y="530" as="sourcePoint" />
            <mxPoint x="503" y="430" as="targetPoint" />
            <Array as="points" />
          </mxGeometry>
        </mxCell>
        <mxCell id="YPzo71LSkBcqXNhe5thy-24" value="" style="endArrow=none;html=1;rounded=0;entryX=-0.023;entryY=0.625;entryDx=0;entryDy=0;entryPerimeter=0;" edge="1" parent="1">
          <mxGeometry width="50" height="50" relative="1" as="geometry">
            <mxPoint x="650" y="520" as="sourcePoint" />
            <mxPoint x="503" y="319" as="targetPoint" />
          </mxGeometry>
        </mxCell>
      </root>
    </mxGraphModel>
  </diagram>
</mxfile>
